<svg width="216" height="200" viewBox="0 0 216 200" fill="none" xmlns="http://www.w3.org/2000/svg">
<rect x="0.218994" width="215.562" height="200" fill="#16161A"/>
<g clip-path="url(#clip0)">
<path d="M163.785 144.333C157.654 144.333 154.017 141.195 153.739 136.676H159.602C159.602 138.182 160.436 140.188 164.063 140.313C166.577 140.313 167.969 138.806 167.969 137.674C167.69 135.918 165.455 135.793 163.229 135.409C160.715 135.045 158.767 134.536 157.366 133.912C155.418 132.905 154.295 130.765 154.295 128.51C154.295 124.49 157.654 121.352 163.507 121.352C169.091 121.352 172.718 124.24 172.987 128.635H167.412C167.412 127.512 167.134 125.622 163.785 125.622C161.549 125.622 160.158 125.996 159.88 127.627C159.88 129.892 164.62 129.767 168.247 130.64C171.596 131.523 173.832 133.653 173.832 136.676C173.832 142.203 169.37 144.333 163.785 144.333Z" fill="#94A1B2"/>
<path d="M56.9515 107.252L76.1999 96.073L86.5245 113.786H60.5786" fill="#94A1B2"/>
<path d="M97.4276 143.666V121.309V143.666Z" fill="#94A1B2"/>
<path d="M97.4276 143.666V121.309" stroke="#94A1B2" stroke-width="8.57036"/>
<path d="M48.0177 132.819C48.0177 136.331 51.0882 139.219 54.4274 139.219C58.0641 139.219 60.8468 136.331 60.8468 132.819C60.8468 129.432 58.0641 126.419 54.4274 126.419C51.0882 126.419 48.0177 129.432 48.0177 132.819ZM54.1492 144.372C48.0177 144.372 42.7211 139.219 42.7211 132.819C42.7211 126.419 48.0177 121.391 54.1492 121.391C56.6632 121.391 58.8989 122.024 60.8468 123.397V121.641H66.4313V143.864H60.8468V142.482C59.1772 143.739 56.6632 144.372 54.1492 144.372Z" fill="#94A1B2"/>
<path d="M128.65 113.782L101.869 67.0722L121.117 55.769L154.596 113.782" fill="#94A1B2"/>
<path d="M73.6851 132.819C73.6851 136.331 76.4773 139.219 80.1044 139.219C83.4436 139.219 86.5237 136.331 86.5237 132.819C86.5237 129.432 83.4436 126.419 80.1044 126.419C76.4773 126.419 73.6851 129.432 73.6851 132.819ZM79.8261 144.372C73.4068 144.372 68.3884 139.219 68.3884 132.819C68.3884 126.419 73.4068 121.391 79.8261 121.391C82.3305 121.391 84.5663 122.024 86.5237 123.397V113.983H92.0986V143.864H86.5237V142.482C84.5663 143.739 82.3305 144.372 79.8261 144.372Z" fill="#94A1B2"/>
<path d="M79.5511 87.2868L99.0778 76.2425L120.562 113.78H100.191V119.307H94.6159V113.78" fill="#94A1B2"/>
<path d="M170.214 119.481C168.813 119.481 167.422 118.224 167.422 116.718C167.422 115.211 168.813 113.954 170.214 113.954C171.884 113.954 173.007 115.211 173.007 116.718C173.007 118.224 171.884 119.481 170.214 119.481ZM170.214 114.338C168.813 114.338 167.979 115.461 167.979 116.718C167.979 117.975 168.813 119.107 170.214 119.107C171.606 119.107 172.44 117.975 172.44 116.718C172.44 115.461 171.606 114.338 170.214 114.338Z" fill="#94A1B2"/>
<path d="M170.79 118.233L170.233 116.976H169.677V118.233H169.255V115.22H170.512C170.79 115.22 171.346 115.604 171.346 116.103C171.346 116.602 171.068 116.852 170.79 116.976L171.346 118.233H170.79ZM170.233 115.604H169.677V116.602H170.233C170.79 116.602 170.79 116.477 170.79 116.103C170.79 115.844 170.79 115.604 170.233 115.604Z" fill="#94A1B2"/>
<path d="M133.368 132.819C133.368 136.331 136.16 139.219 139.787 139.219C143.136 139.219 146.197 136.331 146.197 132.819C146.197 129.432 143.136 126.419 139.787 126.419C136.16 126.419 133.368 129.432 133.368 132.819ZM139.5 144.372C133.09 144.372 128.072 139.219 128.072 132.819C128.072 126.419 133.09 121.391 139.5 121.391C142.014 121.391 144.249 122.024 146.197 123.397V121.641H151.503V143.864H146.197V142.482C144.249 143.739 142.014 144.372 139.5 144.372Z" fill="#94A1B2"/>
<path d="M107.72 132.818C107.72 136.33 110.79 139.218 114.139 139.218C117.766 139.218 120.558 136.33 120.558 132.818C120.558 129.431 117.766 126.418 114.139 126.418C110.79 126.418 107.72 129.431 107.72 132.818ZM120.558 113.983H126.133V143.863H120.558V142.481C118.879 143.738 116.643 144.371 114.139 144.371C107.72 144.371 102.423 139.218 102.423 132.818C102.423 126.418 107.72 121.39 114.139 121.39C116.643 121.39 118.879 122.023 120.558 123.396V113.983Z" fill="#94A1B2"/>
</g>
<defs>
<clipPath id="clip0">
<rect width="131.988" height="89.2758" fill="white" transform="translate(42.2939 55.3311)"/>
</clipPath>
</defs>
</svg>
