<svg width="218" height="200" viewBox="0 0 218 200" fill="none" xmlns="http://www.w3.org/2000/svg">
<rect x="0.930908" width="216.138" height="200" fill="#16161A"/>
<path fill-rule="evenodd" clip-rule="evenodd" d="M54.8539 124.987C50.7137 124.822 47.3269 123.69 44.6784 121.585C44.1728 121.184 42.9686 119.978 42.5645 119.47C41.4904 118.119 40.7605 116.805 40.2734 115.347C38.7747 110.858 39.5463 104.968 42.4796 98.5033C44.9914 92.969 48.8669 87.4799 55.6285 79.8776C56.6247 78.7591 59.5904 75.4873 59.6097 75.4873C59.6167 75.4873 59.4553 75.7675 59.2515 76.1083C57.4935 79.0532 55.989 82.5218 55.1696 85.5246C53.8531 90.343 54.0121 94.4781 55.6347 97.6843C56.754 99.8932 58.673 101.807 60.8309 102.864C64.6087 104.715 70.1395 104.868 76.8938 103.312C77.3589 103.205 100.403 97.0876 128.102 89.7185C155.802 82.3485 178.47 76.3237 178.473 76.3287C178.481 76.3353 114.119 103.876 80.7071 118.164C75.416 120.426 74.001 120.998 71.5131 121.871C65.1544 124.104 59.458 125.169 54.8539 124.986V124.987Z" fill="#94A1B2"/>
</svg>
