<svg width="218" height="200" viewBox="0 0 218 200" fill="none" xmlns="http://www.w3.org/2000/svg">
<rect x="0.930786" width="216.138" height="200" fill="#16161A"/>
<path fill-rule="evenodd" clip-rule="evenodd" d="M50.029 116.589L51.2655 117.762L52.2828 116.589H57.4151L58.5387 114.962H50.6933L50.4692 114.725H48.039L47.8944 114.963H24.5107L23.4092 116.589H50.029ZM49.3818 113.256H46.1599L45.316 112.443H26.1315L27.2392 110.8H43.6551L43.7186 110.44H46.9547L47.0405 110.8H61.2627L60.1389 112.443H48.7347C48.7347 112.443 48.8079 112.862 49.3818 113.256ZM45.0698 108.309H62.9873L64.0999 106.676H45.0427L45.3019 106.286H39.6052L39.3462 106.676H30.0718L28.9625 108.309H41.1026L41.867 109.015H45.6547L45.0698 108.309ZM47.2054 103.991H65.9194L67.0336 102.355H48.3387L48.2036 102.008H42.5882L42.3736 102.355H33.0071L31.9025 103.991H40.5839C40.5839 103.991 41.1624 104.124 40.7571 104.68H46.5808L47.2054 103.991ZM50.2617 99.8377H68.6881L69.8085 98.2047H51.8497L51.7415 97.861H45.5491L45.317 98.2047H35.7803L34.6679 99.8377H43.5798C43.5798 99.8377 44.0359 100.046 43.7181 100.479H49.99C49.99 100.479 49.9962 100.215 50.2617 99.8377ZM53.0556 96.3336H46.69C47.0413 95.7712 46.1941 95.6789 46.1941 95.6789H37.3966L38.4964 94.0411H48.2652L48.513 93.6651H54.9185L55.1951 94.0413H72.5309L71.4071 95.6787H53.4356C53.4356 95.6787 53.1637 95.9669 53.0556 96.3336ZM57.5198 91.5738H74.2771L75.3882 89.9377H58.9518L58.5385 89.2291H51.6675L51.1398 89.9377H41.3743L40.2633 91.5738H48.9511C48.9511 91.5738 49.9907 91.5799 49.5201 92.2487H57.2624C57.2624 92.2487 57.2926 92.0192 57.5198 91.574V91.5738ZM59.1899 85.8213H78.112L76.9947 87.4558H60.8493C60.3931 87.4558 60.0863 88.1429 60.0863 88.1429H52.43C52.8179 87.4898 51.9693 87.4558 51.9693 87.4558H42.9873L44.084 85.8213H58.2298L58.8227 85.2927L60.2421 83.4348H59.902L61.1735 81.8447H62.1415L60.9621 83.4348H60.676L59.1264 85.3559L59.1899 85.8213ZM89.153 85.9018L84.7057 92.377H81.0755L78.0095 96.7972H81.8226L70.9573 112.629C70.9573 112.629 70.1132 113.889 70.1132 115.692C70.1132 117.49 72.4402 117.762 72.4402 117.762H80.7069L83.3119 113.174H79.2191C79.2191 113.174 77.6392 112.993 78.3782 111.743C79.1254 110.471 88.6302 96.7972 88.6302 96.7972H93.4253L96.0544 92.377H91.6627L96.0733 85.9017L89.153 85.9018ZM114.939 117.762L135.958 85.9013H128.926L107.919 117.762H114.939ZM173.997 117.762L195.012 85.9013H187.993L166.979 117.762H173.997ZM97.701 102.955H108.843C108.843 102.955 110.089 100.886 110.464 99.1744C110.844 97.4627 108.805 97.0096 106.522 97.0096C104.254 97.0096 100.765 97.2408 97.701 102.955ZM111.72 107.414H94.8163C94.8163 107.414 93.0934 109.457 92.8993 111.195C92.8993 111.195 92.8993 112.629 94.6907 112.629H107.692L104.288 117.762H93.6989C93.6989 117.762 85.658 117.762 85.658 113.174C85.658 113.174 85.5833 109.745 91.4801 101.787C97.3785 93.8159 101.416 93.5093 108.193 93.5093C114.969 93.5093 116.808 95.5937 116.596 97.3271C116.369 99.3038 116.13 100.344 111.72 107.414H111.72ZM156.15 102.955H167.292C167.292 102.955 168.541 100.886 168.913 99.1744C169.291 97.4627 167.244 97.0096 164.969 97.0096C162.696 97.0096 159.208 97.2408 156.15 102.955ZM170.164 107.414H153.262C153.262 107.414 151.534 109.457 151.348 111.195C151.348 111.195 151.348 112.629 153.136 112.629H166.15L162.739 117.762H152.152C152.152 117.762 144.105 117.762 144.105 113.174C144.105 113.174 144.022 109.745 149.929 101.787C155.825 93.8159 159.863 93.5093 166.64 93.5093C173.417 93.5093 175.245 95.5937 175.051 97.3271C174.814 99.3038 174.576 100.344 170.164 107.414ZM129.069 111.194C129.069 111.194 129.069 112.63 130.851 112.63H142.189L138.783 117.762H129.873C129.873 117.762 121.198 118.027 121.832 113.174C121.832 113.174 121.743 109.744 127.643 101.787C127.643 101.787 132.984 93.5088 144.507 93.5088H152.122L148.682 98.5884H142.55C141.992 98.5884 137.537 99.0367 133.546 103.36C129.558 107.68 129.237 109.744 129.069 111.194Z" fill="#94A1B2"/>
</svg>
